<mxfile host="app.diagrams.net" agent="Mozilla/5.0 (Windows NT 10.0; Win64; x64) AppleWebKit/537.36 (KHTML, like Gecko) Chrome/134.0.0.0 Safari/537.36" version="26.2.3">
  <diagram name="Modelo-ER" id="4nw62lO1h6hBah5cUrS4">
    <mxGraphModel dx="1428" dy="743" grid="1" gridSize="10" guides="1" tooltips="1" connect="1" arrows="1" fold="1" page="1" pageScale="1" pageWidth="827" pageHeight="1169" math="0" shadow="0">
      <root>
        <mxCell id="0" />
        <mxCell id="1" parent="0" />
        <mxCell id="E68iJSFj84GTbNLbcEv8-1" value="EVENTO" style="whiteSpace=wrap;html=1;align=center;" parent="1" vertex="1">
          <mxGeometry x="364" y="920" width="100" height="40" as="geometry" />
        </mxCell>
        <mxCell id="E68iJSFj84GTbNLbcEv8-2" value="COMIC" style="whiteSpace=wrap;html=1;align=center;" parent="1" vertex="1">
          <mxGeometry x="610" y="740" width="100" height="40" as="geometry" />
        </mxCell>
        <mxCell id="E68iJSFj84GTbNLbcEv8-3" value="SERIE" style="whiteSpace=wrap;html=1;align=center;" parent="1" vertex="1">
          <mxGeometry x="500" y="410" width="100" height="40" as="geometry" />
        </mxCell>
        <mxCell id="E68iJSFj84GTbNLbcEv8-4" value="PERSONAJE" style="whiteSpace=wrap;html=1;align=center;" parent="1" vertex="1">
          <mxGeometry x="100" y="740" width="100" height="40" as="geometry" />
        </mxCell>
        <mxCell id="E68iJSFj84GTbNLbcEv8-5" value="USUARIO" style="whiteSpace=wrap;html=1;align=center;" parent="1" vertex="1">
          <mxGeometry x="240" y="410" width="100" height="40" as="geometry" />
        </mxCell>
        <mxCell id="E68iJSFj84GTbNLbcEv8-9" value="IDIOMA" style="whiteSpace=wrap;html=1;align=center;" parent="1" vertex="1">
          <mxGeometry x="359" y="210" width="100" height="40" as="geometry" />
        </mxCell>
        <mxCell id="GF9N1NEK_EVH8XBZDfcY-1" value="CREADOR" style="whiteSpace=wrap;html=1;align=center;" parent="1" vertex="1">
          <mxGeometry x="610" y="920" width="100" height="40" as="geometry" />
        </mxCell>
        <mxCell id="GF9N1NEK_EVH8XBZDfcY-2" value="HISTORIAL_BUSQUEDA" style="whiteSpace=wrap;html=1;align=center;" parent="1" vertex="1">
          <mxGeometry x="65" y="210" width="160" height="40" as="geometry" />
        </mxCell>
        <mxCell id="GF9N1NEK_EVH8XBZDfcY-3" value="FAVORITOS" style="whiteSpace=wrap;html=1;align=center;" parent="1" vertex="1">
          <mxGeometry x="370" y="590" width="100" height="40" as="geometry" />
        </mxCell>
        <mxCell id="bm0z0x6JTXVxcFclUV1G-10" value="&lt;span style=&quot;font-weight: normal;&quot;&gt;guarda&lt;/span&gt;" style="shape=rhombus;perimeter=rhombusPerimeter;whiteSpace=wrap;html=1;align=center;fontStyle=1" parent="1" vertex="1">
          <mxGeometry x="280" y="510" width="90" height="40" as="geometry" />
        </mxCell>
        <mxCell id="bm0z0x6JTXVxcFclUV1G-11" value="" style="endArrow=none;html=1;rounded=0;exitX=0.5;exitY=1;exitDx=0;exitDy=0;entryX=0;entryY=0;entryDx=0;entryDy=0;" parent="1" source="bm0z0x6JTXVxcFclUV1G-10" target="GF9N1NEK_EVH8XBZDfcY-3" edge="1">
          <mxGeometry relative="1" as="geometry">
            <mxPoint x="280" y="600" as="sourcePoint" />
            <mxPoint x="440" y="600" as="targetPoint" />
          </mxGeometry>
        </mxCell>
        <mxCell id="bm0z0x6JTXVxcFclUV1G-12" value="" style="endArrow=none;html=1;rounded=0;exitX=0.5;exitY=1;exitDx=0;exitDy=0;entryX=0.5;entryY=0;entryDx=0;entryDy=0;" parent="1" source="E68iJSFj84GTbNLbcEv8-5" target="bm0z0x6JTXVxcFclUV1G-10" edge="1">
          <mxGeometry relative="1" as="geometry">
            <mxPoint x="345" y="550" as="sourcePoint" />
            <mxPoint x="380" y="620" as="targetPoint" />
          </mxGeometry>
        </mxCell>
        <mxCell id="bm0z0x6JTXVxcFclUV1G-13" value="marca" style="shape=rhombus;perimeter=rhombusPerimeter;whiteSpace=wrap;html=1;align=center;" parent="1" vertex="1">
          <mxGeometry x="470" y="510" width="90" height="40" as="geometry" />
        </mxCell>
        <mxCell id="bm0z0x6JTXVxcFclUV1G-14" value="marca" style="shape=rhombus;perimeter=rhombusPerimeter;whiteSpace=wrap;html=1;align=center;" parent="1" vertex="1">
          <mxGeometry x="245" y="680" width="90" height="40" as="geometry" />
        </mxCell>
        <mxCell id="bm0z0x6JTXVxcFclUV1G-15" value="marca" style="shape=rhombus;perimeter=rhombusPerimeter;whiteSpace=wrap;html=1;align=center;" parent="1" vertex="1">
          <mxGeometry x="490" y="680" width="90" height="40" as="geometry" />
        </mxCell>
        <mxCell id="bm0z0x6JTXVxcFclUV1G-16" value="" style="endArrow=none;html=1;rounded=0;exitX=0;exitY=1;exitDx=0;exitDy=0;entryX=1;entryY=0;entryDx=0;entryDy=0;" parent="1" source="GF9N1NEK_EVH8XBZDfcY-3" target="bm0z0x6JTXVxcFclUV1G-14" edge="1">
          <mxGeometry relative="1" as="geometry">
            <mxPoint x="335" y="560" as="sourcePoint" />
            <mxPoint x="380" y="620" as="targetPoint" />
          </mxGeometry>
        </mxCell>
        <mxCell id="bm0z0x6JTXVxcFclUV1G-17" value="" style="endArrow=none;html=1;rounded=0;exitX=1;exitY=0.5;exitDx=0;exitDy=0;entryX=0;entryY=1;entryDx=0;entryDy=0;" parent="1" source="E68iJSFj84GTbNLbcEv8-4" target="bm0z0x6JTXVxcFclUV1G-14" edge="1">
          <mxGeometry relative="1" as="geometry">
            <mxPoint x="380" y="640" as="sourcePoint" />
            <mxPoint x="323" y="700" as="targetPoint" />
          </mxGeometry>
        </mxCell>
        <mxCell id="bm0z0x6JTXVxcFclUV1G-18" value="" style="endArrow=none;html=1;rounded=0;exitX=1;exitY=1;exitDx=0;exitDy=0;entryX=0;entryY=0;entryDx=0;entryDy=0;" parent="1" source="GF9N1NEK_EVH8XBZDfcY-3" target="bm0z0x6JTXVxcFclUV1G-15" edge="1">
          <mxGeometry relative="1" as="geometry">
            <mxPoint x="380" y="640" as="sourcePoint" />
            <mxPoint x="550" y="650" as="targetPoint" />
          </mxGeometry>
        </mxCell>
        <mxCell id="bm0z0x6JTXVxcFclUV1G-19" value="" style="endArrow=none;html=1;rounded=0;entryX=1;entryY=1;entryDx=0;entryDy=0;exitX=0;exitY=0.5;exitDx=0;exitDy=0;" parent="1" source="E68iJSFj84GTbNLbcEv8-2" target="bm0z0x6JTXVxcFclUV1G-15" edge="1">
          <mxGeometry relative="1" as="geometry">
            <mxPoint x="600" y="770" as="sourcePoint" />
            <mxPoint x="545" y="690" as="targetPoint" />
          </mxGeometry>
        </mxCell>
        <mxCell id="bm0z0x6JTXVxcFclUV1G-20" value="" style="endArrow=none;html=1;rounded=0;exitX=0.5;exitY=1;exitDx=0;exitDy=0;entryX=1;entryY=0;entryDx=0;entryDy=0;" parent="1" source="bm0z0x6JTXVxcFclUV1G-13" target="GF9N1NEK_EVH8XBZDfcY-3" edge="1">
          <mxGeometry relative="1" as="geometry">
            <mxPoint x="335" y="560" as="sourcePoint" />
            <mxPoint x="380" y="600" as="targetPoint" />
          </mxGeometry>
        </mxCell>
        <mxCell id="bm0z0x6JTXVxcFclUV1G-21" value="" style="endArrow=none;html=1;rounded=0;entryX=0.5;entryY=0;entryDx=0;entryDy=0;exitX=0.5;exitY=1;exitDx=0;exitDy=0;" parent="1" source="E68iJSFj84GTbNLbcEv8-3" target="bm0z0x6JTXVxcFclUV1G-13" edge="1">
          <mxGeometry relative="1" as="geometry">
            <mxPoint x="560" y="490" as="sourcePoint" />
            <mxPoint x="480" y="600" as="targetPoint" />
          </mxGeometry>
        </mxCell>
        <mxCell id="bm0z0x6JTXVxcFclUV1G-22" value="incluye" style="shape=rhombus;perimeter=rhombusPerimeter;whiteSpace=wrap;html=1;align=center;" parent="1" vertex="1">
          <mxGeometry x="245" y="820" width="90" height="40" as="geometry" />
        </mxCell>
        <mxCell id="bm0z0x6JTXVxcFclUV1G-23" value="incluye" style="shape=rhombus;perimeter=rhombusPerimeter;whiteSpace=wrap;html=1;align=center;" parent="1" vertex="1">
          <mxGeometry x="490" y="820" width="90" height="40" as="geometry" />
        </mxCell>
        <mxCell id="bm0z0x6JTXVxcFclUV1G-24" value="" style="endArrow=none;html=1;rounded=0;entryX=1;entryY=0.5;entryDx=0;entryDy=0;exitX=0;exitY=0.5;exitDx=0;exitDy=0;" parent="1" source="E68iJSFj84GTbNLbcEv8-2" target="bm0z0x6JTXVxcFclUV1G-23" edge="1">
          <mxGeometry relative="1" as="geometry">
            <mxPoint x="620" y="770" as="sourcePoint" />
            <mxPoint x="568" y="720" as="targetPoint" />
          </mxGeometry>
        </mxCell>
        <mxCell id="bm0z0x6JTXVxcFclUV1G-25" value="" style="endArrow=none;html=1;rounded=0;entryX=1;entryY=0.5;entryDx=0;entryDy=0;exitX=0;exitY=0.5;exitDx=0;exitDy=0;" parent="1" source="bm0z0x6JTXVxcFclUV1G-23" target="E68iJSFj84GTbNLbcEv8-1" edge="1">
          <mxGeometry relative="1" as="geometry">
            <mxPoint x="620" y="770" as="sourcePoint" />
            <mxPoint x="590" y="850" as="targetPoint" />
          </mxGeometry>
        </mxCell>
        <mxCell id="bm0z0x6JTXVxcFclUV1G-26" value="" style="endArrow=none;html=1;rounded=0;entryX=0;entryY=0.5;entryDx=0;entryDy=0;exitX=1;exitY=0.5;exitDx=0;exitDy=0;" parent="1" source="bm0z0x6JTXVxcFclUV1G-22" target="E68iJSFj84GTbNLbcEv8-1" edge="1">
          <mxGeometry relative="1" as="geometry">
            <mxPoint x="500" y="850" as="sourcePoint" />
            <mxPoint x="474" y="950" as="targetPoint" />
          </mxGeometry>
        </mxCell>
        <mxCell id="bm0z0x6JTXVxcFclUV1G-27" value="" style="endArrow=none;html=1;rounded=0;entryX=0;entryY=0.5;entryDx=0;entryDy=0;exitX=1;exitY=0.5;exitDx=0;exitDy=0;" parent="1" source="E68iJSFj84GTbNLbcEv8-4" target="bm0z0x6JTXVxcFclUV1G-22" edge="1">
          <mxGeometry relative="1" as="geometry">
            <mxPoint x="345" y="850" as="sourcePoint" />
            <mxPoint x="374" y="950" as="targetPoint" />
          </mxGeometry>
        </mxCell>
        <mxCell id="bm0z0x6JTXVxcFclUV1G-28" value="&lt;span style=&quot;font-weight: normal;&quot;&gt;realiza&lt;/span&gt;" style="shape=rhombus;perimeter=rhombusPerimeter;whiteSpace=wrap;html=1;align=center;fontStyle=1" parent="1" vertex="1">
          <mxGeometry x="100" y="310" width="90" height="40" as="geometry" />
        </mxCell>
        <mxCell id="bm0z0x6JTXVxcFclUV1G-29" value="&lt;span style=&quot;font-weight: normal;&quot;&gt;utiliza&lt;/span&gt;" style="shape=rhombus;perimeter=rhombusPerimeter;whiteSpace=wrap;html=1;align=center;fontStyle=1" parent="1" vertex="1">
          <mxGeometry x="364" y="310" width="90" height="40" as="geometry" />
        </mxCell>
        <mxCell id="bm0z0x6JTXVxcFclUV1G-30" value="" style="endArrow=none;html=1;rounded=0;exitX=0.5;exitY=1;exitDx=0;exitDy=0;entryX=0.5;entryY=0;entryDx=0;entryDy=0;" parent="1" source="bm0z0x6JTXVxcFclUV1G-29" target="E68iJSFj84GTbNLbcEv8-5" edge="1">
          <mxGeometry relative="1" as="geometry">
            <mxPoint x="300" y="460" as="sourcePoint" />
            <mxPoint x="335" y="520" as="targetPoint" />
          </mxGeometry>
        </mxCell>
        <mxCell id="bm0z0x6JTXVxcFclUV1G-31" value="" style="endArrow=none;html=1;rounded=0;exitX=0.5;exitY=1;exitDx=0;exitDy=0;entryX=0.5;entryY=0;entryDx=0;entryDy=0;" parent="1" source="bm0z0x6JTXVxcFclUV1G-28" target="E68iJSFj84GTbNLbcEv8-5" edge="1">
          <mxGeometry relative="1" as="geometry">
            <mxPoint x="365" y="360" as="sourcePoint" />
            <mxPoint x="280" y="380" as="targetPoint" />
          </mxGeometry>
        </mxCell>
        <mxCell id="bm0z0x6JTXVxcFclUV1G-32" value="" style="endArrow=none;html=1;rounded=0;exitX=0.5;exitY=1;exitDx=0;exitDy=0;entryX=0.5;entryY=0;entryDx=0;entryDy=0;" parent="1" source="GF9N1NEK_EVH8XBZDfcY-2" target="bm0z0x6JTXVxcFclUV1G-28" edge="1">
          <mxGeometry relative="1" as="geometry">
            <mxPoint x="155" y="360" as="sourcePoint" />
            <mxPoint x="300" y="420" as="targetPoint" />
          </mxGeometry>
        </mxCell>
        <mxCell id="bm0z0x6JTXVxcFclUV1G-33" value="" style="endArrow=none;html=1;rounded=0;exitX=0.5;exitY=1;exitDx=0;exitDy=0;entryX=0.5;entryY=0;entryDx=0;entryDy=0;" parent="1" source="E68iJSFj84GTbNLbcEv8-9" target="bm0z0x6JTXVxcFclUV1G-29" edge="1">
          <mxGeometry relative="1" as="geometry">
            <mxPoint x="140" y="260" as="sourcePoint" />
            <mxPoint x="155" y="320" as="targetPoint" />
          </mxGeometry>
        </mxCell>
        <mxCell id="bm0z0x6JTXVxcFclUV1G-34" value="pertenece" style="shape=rhombus;perimeter=rhombusPerimeter;whiteSpace=wrap;html=1;align=center;" parent="1" vertex="1">
          <mxGeometry x="615" y="580" width="90" height="40" as="geometry" />
        </mxCell>
        <mxCell id="bm0z0x6JTXVxcFclUV1G-35" value="" style="endArrow=none;html=1;rounded=0;entryX=0.5;entryY=0;entryDx=0;entryDy=0;exitX=0.5;exitY=1;exitDx=0;exitDy=0;" parent="1" source="E68iJSFj84GTbNLbcEv8-3" target="bm0z0x6JTXVxcFclUV1G-34" edge="1">
          <mxGeometry relative="1" as="geometry">
            <mxPoint x="560" y="460" as="sourcePoint" />
            <mxPoint x="525" y="520" as="targetPoint" />
          </mxGeometry>
        </mxCell>
        <mxCell id="bm0z0x6JTXVxcFclUV1G-36" value="" style="endArrow=none;html=1;rounded=0;entryX=0.5;entryY=1;entryDx=0;entryDy=0;exitX=0.5;exitY=0;exitDx=0;exitDy=0;" parent="1" source="E68iJSFj84GTbNLbcEv8-2" target="bm0z0x6JTXVxcFclUV1G-34" edge="1">
          <mxGeometry relative="1" as="geometry">
            <mxPoint x="560" y="460" as="sourcePoint" />
            <mxPoint x="675" y="570" as="targetPoint" />
          </mxGeometry>
        </mxCell>
        <mxCell id="bm0z0x6JTXVxcFclUV1G-37" value="aparece" style="shape=rhombus;perimeter=rhombusPerimeter;whiteSpace=wrap;html=1;align=center;" parent="1" vertex="1">
          <mxGeometry x="370" y="740" width="90" height="40" as="geometry" />
        </mxCell>
        <mxCell id="bm0z0x6JTXVxcFclUV1G-38" value="" style="endArrow=none;html=1;rounded=0;exitX=1;exitY=0.5;exitDx=0;exitDy=0;entryX=0;entryY=0.5;entryDx=0;entryDy=0;" parent="1" source="E68iJSFj84GTbNLbcEv8-4" target="bm0z0x6JTXVxcFclUV1G-37" edge="1">
          <mxGeometry relative="1" as="geometry">
            <mxPoint x="210" y="770" as="sourcePoint" />
            <mxPoint x="278" y="720" as="targetPoint" />
          </mxGeometry>
        </mxCell>
        <mxCell id="bm0z0x6JTXVxcFclUV1G-39" value="" style="endArrow=none;html=1;rounded=0;exitX=0;exitY=0.5;exitDx=0;exitDy=0;entryX=1;entryY=0.5;entryDx=0;entryDy=0;" parent="1" source="E68iJSFj84GTbNLbcEv8-2" target="bm0z0x6JTXVxcFclUV1G-37" edge="1">
          <mxGeometry relative="1" as="geometry">
            <mxPoint x="210" y="770" as="sourcePoint" />
            <mxPoint x="379" y="780" as="targetPoint" />
          </mxGeometry>
        </mxCell>
        <mxCell id="bm0z0x6JTXVxcFclUV1G-40" value="tiene" style="shape=rhombus;perimeter=rhombusPerimeter;whiteSpace=wrap;html=1;align=center;" parent="1" vertex="1">
          <mxGeometry x="615" y="830" width="90" height="40" as="geometry" />
        </mxCell>
        <mxCell id="bm0z0x6JTXVxcFclUV1G-41" value="" style="endArrow=none;html=1;rounded=0;entryX=0.5;entryY=1;entryDx=0;entryDy=0;exitX=0.5;exitY=0;exitDx=0;exitDy=0;" parent="1" source="bm0z0x6JTXVxcFclUV1G-40" target="E68iJSFj84GTbNLbcEv8-2" edge="1">
          <mxGeometry relative="1" as="geometry">
            <mxPoint x="670" y="750" as="sourcePoint" />
            <mxPoint x="670" y="630" as="targetPoint" />
          </mxGeometry>
        </mxCell>
        <mxCell id="bm0z0x6JTXVxcFclUV1G-42" value="" style="endArrow=none;html=1;rounded=0;entryX=0.5;entryY=0;entryDx=0;entryDy=0;exitX=0.5;exitY=1;exitDx=0;exitDy=0;" parent="1" source="bm0z0x6JTXVxcFclUV1G-40" target="GF9N1NEK_EVH8XBZDfcY-1" edge="1">
          <mxGeometry relative="1" as="geometry">
            <mxPoint x="665" y="850" as="sourcePoint" />
            <mxPoint x="670" y="790" as="targetPoint" />
          </mxGeometry>
        </mxCell>
        <mxCell id="bm0z0x6JTXVxcFclUV1G-43" value="1" style="text;html=1;align=center;verticalAlign=middle;resizable=0;points=[];autosize=1;strokeColor=none;fillColor=none;" parent="1" vertex="1">
          <mxGeometry x="310" y="360" width="30" height="30" as="geometry" />
        </mxCell>
        <mxCell id="bm0z0x6JTXVxcFclUV1G-44" value="1" style="text;html=1;align=center;verticalAlign=middle;resizable=0;points=[];autosize=1;strokeColor=none;fillColor=none;" parent="1" vertex="1">
          <mxGeometry x="405" y="248" width="30" height="30" as="geometry" />
        </mxCell>
        <mxCell id="bm0z0x6JTXVxcFclUV1G-45" value="1" style="text;html=1;align=center;verticalAlign=middle;resizable=0;points=[];autosize=1;strokeColor=none;fillColor=none;" parent="1" vertex="1">
          <mxGeometry x="225" y="360" width="30" height="30" as="geometry" />
        </mxCell>
        <mxCell id="bm0z0x6JTXVxcFclUV1G-46" value="N" style="text;html=1;align=center;verticalAlign=middle;resizable=0;points=[];autosize=1;strokeColor=none;fillColor=none;" parent="1" vertex="1">
          <mxGeometry x="145" y="248" width="30" height="30" as="geometry" />
        </mxCell>
        <mxCell id="bm0z0x6JTXVxcFclUV1G-47" value="1" style="text;html=1;align=center;verticalAlign=middle;resizable=0;points=[];autosize=1;strokeColor=none;fillColor=none;" parent="1" vertex="1">
          <mxGeometry x="305" y="448" width="30" height="30" as="geometry" />
        </mxCell>
        <mxCell id="bm0z0x6JTXVxcFclUV1G-48" value="N" style="text;html=1;align=center;verticalAlign=middle;resizable=0;points=[];autosize=1;strokeColor=none;fillColor=none;" parent="1" vertex="1">
          <mxGeometry x="350" y="554.5" width="30" height="30" as="geometry" />
        </mxCell>
        <mxCell id="bm0z0x6JTXVxcFclUV1G-49" value="N" style="text;html=1;align=center;verticalAlign=middle;resizable=0;points=[];autosize=1;strokeColor=none;fillColor=none;" parent="1" vertex="1">
          <mxGeometry x="325" y="628" width="30" height="30" as="geometry" />
        </mxCell>
        <mxCell id="bm0z0x6JTXVxcFclUV1G-50" value="N" style="text;html=1;align=center;verticalAlign=middle;resizable=0;points=[];autosize=1;strokeColor=none;fillColor=none;" parent="1" vertex="1">
          <mxGeometry x="480" y="628" width="30" height="30" as="geometry" />
        </mxCell>
        <mxCell id="bm0z0x6JTXVxcFclUV1G-51" value="N" style="text;html=1;align=center;verticalAlign=middle;resizable=0;points=[];autosize=1;strokeColor=none;fillColor=none;" parent="1" vertex="1">
          <mxGeometry x="454" y="555" width="30" height="30" as="geometry" />
        </mxCell>
        <mxCell id="bm0z0x6JTXVxcFclUV1G-52" value="M" style="text;html=1;align=center;verticalAlign=middle;resizable=0;points=[];autosize=1;strokeColor=none;fillColor=none;" parent="1" vertex="1">
          <mxGeometry x="515" y="448" width="30" height="30" as="geometry" />
        </mxCell>
        <mxCell id="bm0z0x6JTXVxcFclUV1G-53" value="M" style="text;html=1;align=center;verticalAlign=middle;resizable=0;points=[];autosize=1;strokeColor=none;fillColor=none;" parent="1" vertex="1">
          <mxGeometry x="585" y="718" width="30" height="30" as="geometry" />
        </mxCell>
        <mxCell id="bm0z0x6JTXVxcFclUV1G-54" value="M" style="text;html=1;align=center;verticalAlign=middle;resizable=0;points=[];autosize=1;strokeColor=none;fillColor=none;" parent="1" vertex="1">
          <mxGeometry x="195" y="708" width="30" height="30" as="geometry" />
        </mxCell>
        <mxCell id="bm0z0x6JTXVxcFclUV1G-55" value="N" style="text;html=1;align=center;verticalAlign=middle;resizable=0;points=[];autosize=1;strokeColor=none;fillColor=none;" parent="1" vertex="1">
          <mxGeometry x="225" y="738" width="30" height="30" as="geometry" />
        </mxCell>
        <mxCell id="bm0z0x6JTXVxcFclUV1G-56" value="M" style="text;html=1;align=center;verticalAlign=middle;resizable=0;points=[];autosize=1;strokeColor=none;fillColor=none;" parent="1" vertex="1">
          <mxGeometry x="555" y="738" width="30" height="30" as="geometry" />
        </mxCell>
        <mxCell id="bm0z0x6JTXVxcFclUV1G-57" value="N" style="text;html=1;align=center;verticalAlign=middle;resizable=0;points=[];autosize=1;strokeColor=none;fillColor=none;" parent="1" vertex="1">
          <mxGeometry x="210" y="768" width="30" height="30" as="geometry" />
        </mxCell>
        <mxCell id="bm0z0x6JTXVxcFclUV1G-58" value="M" style="text;html=1;align=center;verticalAlign=middle;resizable=0;points=[];autosize=1;strokeColor=none;fillColor=none;" parent="1" vertex="1">
          <mxGeometry x="355" y="888" width="30" height="30" as="geometry" />
        </mxCell>
        <mxCell id="bm0z0x6JTXVxcFclUV1G-59" value="N" style="text;html=1;align=center;verticalAlign=middle;resizable=0;points=[];autosize=1;strokeColor=none;fillColor=none;" parent="1" vertex="1">
          <mxGeometry x="445" y="888" width="30" height="30" as="geometry" />
        </mxCell>
        <mxCell id="bm0z0x6JTXVxcFclUV1G-60" value="M" style="text;html=1;align=center;verticalAlign=middle;resizable=0;points=[];autosize=1;strokeColor=none;fillColor=none;" parent="1" vertex="1">
          <mxGeometry x="565" y="768" width="30" height="30" as="geometry" />
        </mxCell>
        <mxCell id="bm0z0x6JTXVxcFclUV1G-61" value="N" style="text;html=1;align=center;verticalAlign=middle;resizable=0;points=[];autosize=1;strokeColor=none;fillColor=none;" parent="1" vertex="1">
          <mxGeometry x="635" y="778" width="30" height="30" as="geometry" />
        </mxCell>
        <mxCell id="bm0z0x6JTXVxcFclUV1G-62" value="M" style="text;html=1;align=center;verticalAlign=middle;resizable=0;points=[];autosize=1;strokeColor=none;fillColor=none;" parent="1" vertex="1">
          <mxGeometry x="625" y="888" width="30" height="30" as="geometry" />
        </mxCell>
        <mxCell id="bm0z0x6JTXVxcFclUV1G-63" value="1" style="text;html=1;align=center;verticalAlign=middle;resizable=0;points=[];autosize=1;strokeColor=none;fillColor=none;" parent="1" vertex="1">
          <mxGeometry x="655" y="708" width="30" height="30" as="geometry" />
        </mxCell>
        <mxCell id="bm0z0x6JTXVxcFclUV1G-64" value="N" style="text;html=1;align=center;verticalAlign=middle;resizable=0;points=[];autosize=1;strokeColor=none;fillColor=none;" parent="1" vertex="1">
          <mxGeometry x="575" y="458" width="30" height="30" as="geometry" />
        </mxCell>
        <mxCell id="LX1QEvnsO2SAnULXbg1H-1" value="id_usuario" style="ellipse;whiteSpace=wrap;html=1;align=center;fontStyle=4;" parent="1" vertex="1">
          <mxGeometry x="80" y="415" width="80" height="30" as="geometry" />
        </mxCell>
        <mxCell id="LX1QEvnsO2SAnULXbg1H-2" value="termino_busqueda" style="ellipse;whiteSpace=wrap;html=1;align=center;" parent="1" vertex="1">
          <mxGeometry x="170" y="140" width="110" height="30" as="geometry" />
        </mxCell>
        <mxCell id="LX1QEvnsO2SAnULXbg1H-6" value="" style="endArrow=none;html=1;rounded=0;exitX=1;exitY=0.5;exitDx=0;exitDy=0;entryX=0;entryY=0.5;entryDx=0;entryDy=0;" parent="1" source="LX1QEvnsO2SAnULXbg1H-1" target="E68iJSFj84GTbNLbcEv8-5" edge="1">
          <mxGeometry relative="1" as="geometry">
            <mxPoint x="130" y="420" as="sourcePoint" />
            <mxPoint x="290" y="420" as="targetPoint" />
          </mxGeometry>
        </mxCell>
        <mxCell id="LX1QEvnsO2SAnULXbg1H-11" value="id_historial" style="ellipse;whiteSpace=wrap;html=1;align=center;fontStyle=4;" parent="1" vertex="1">
          <mxGeometry x="30" y="140" width="80" height="30" as="geometry" />
        </mxCell>
        <mxCell id="LX1QEvnsO2SAnULXbg1H-12" value="" style="endArrow=none;html=1;rounded=0;exitX=0.5;exitY=1;exitDx=0;exitDy=0;entryX=0.5;entryY=0;entryDx=0;entryDy=0;" parent="1" source="LX1QEvnsO2SAnULXbg1H-11" target="GF9N1NEK_EVH8XBZDfcY-2" edge="1">
          <mxGeometry relative="1" as="geometry">
            <mxPoint x="100" y="375" as="sourcePoint" />
            <mxPoint x="250" y="430" as="targetPoint" />
          </mxGeometry>
        </mxCell>
        <mxCell id="LX1QEvnsO2SAnULXbg1H-13" value="" style="endArrow=none;html=1;rounded=0;exitX=0.5;exitY=1;exitDx=0;exitDy=0;entryX=0.5;entryY=0;entryDx=0;entryDy=0;" parent="1" source="LX1QEvnsO2SAnULXbg1H-2" target="GF9N1NEK_EVH8XBZDfcY-2" edge="1">
          <mxGeometry relative="1" as="geometry">
            <mxPoint x="110" y="385" as="sourcePoint" />
            <mxPoint x="260" y="440" as="targetPoint" />
          </mxGeometry>
        </mxCell>
        <mxCell id="LX1QEvnsO2SAnULXbg1H-15" value="codigo" style="ellipse;whiteSpace=wrap;html=1;align=center;" parent="1" vertex="1">
          <mxGeometry x="484" y="130" width="85" height="30" as="geometry" />
        </mxCell>
        <mxCell id="LX1QEvnsO2SAnULXbg1H-16" value="nombre" style="ellipse;whiteSpace=wrap;html=1;align=center;" parent="1" vertex="1">
          <mxGeometry x="366.5" y="130" width="85" height="30" as="geometry" />
        </mxCell>
        <mxCell id="LX1QEvnsO2SAnULXbg1H-17" value="id_idioma" style="ellipse;whiteSpace=wrap;html=1;align=center;fontStyle=4;" parent="1" vertex="1">
          <mxGeometry x="540" y="190" width="80" height="30" as="geometry" />
        </mxCell>
        <mxCell id="LX1QEvnsO2SAnULXbg1H-18" value="" style="endArrow=none;html=1;rounded=0;exitX=0.5;exitY=1;exitDx=0;exitDy=0;entryX=0.5;entryY=0;entryDx=0;entryDy=0;" parent="1" source="LX1QEvnsO2SAnULXbg1H-16" target="E68iJSFj84GTbNLbcEv8-9" edge="1">
          <mxGeometry relative="1" as="geometry">
            <mxPoint x="235" y="180" as="sourcePoint" />
            <mxPoint x="155" y="220" as="targetPoint" />
          </mxGeometry>
        </mxCell>
        <mxCell id="LX1QEvnsO2SAnULXbg1H-19" value="" style="endArrow=none;html=1;rounded=0;exitX=0.5;exitY=1;exitDx=0;exitDy=0;entryX=0.75;entryY=0;entryDx=0;entryDy=0;" parent="1" source="LX1QEvnsO2SAnULXbg1H-15" target="E68iJSFj84GTbNLbcEv8-9" edge="1">
          <mxGeometry relative="1" as="geometry">
            <mxPoint x="419" y="170" as="sourcePoint" />
            <mxPoint x="419" y="220" as="targetPoint" />
          </mxGeometry>
        </mxCell>
        <mxCell id="LX1QEvnsO2SAnULXbg1H-20" value="" style="endArrow=none;html=1;rounded=0;exitX=0;exitY=0.5;exitDx=0;exitDy=0;entryX=1;entryY=0.5;entryDx=0;entryDy=0;" parent="1" source="LX1QEvnsO2SAnULXbg1H-17" target="E68iJSFj84GTbNLbcEv8-9" edge="1">
          <mxGeometry relative="1" as="geometry">
            <mxPoint x="537" y="170" as="sourcePoint" />
            <mxPoint x="460" y="217" as="targetPoint" />
          </mxGeometry>
        </mxCell>
        <mxCell id="LX1QEvnsO2SAnULXbg1H-21" value="id_favoritos" style="ellipse;whiteSpace=wrap;html=1;align=center;fontStyle=4;" parent="1" vertex="1">
          <mxGeometry x="200" y="595" width="80" height="30" as="geometry" />
        </mxCell>
        <mxCell id="LX1QEvnsO2SAnULXbg1H-22" value="" style="endArrow=none;html=1;rounded=0;exitX=1;exitY=0.5;exitDx=0;exitDy=0;entryX=0;entryY=0.5;entryDx=0;entryDy=0;" parent="1" source="LX1QEvnsO2SAnULXbg1H-21" target="GF9N1NEK_EVH8XBZDfcY-3" edge="1">
          <mxGeometry relative="1" as="geometry">
            <mxPoint x="170" y="440" as="sourcePoint" />
            <mxPoint x="250" y="440" as="targetPoint" />
          </mxGeometry>
        </mxCell>
        <mxCell id="LX1QEvnsO2SAnULXbg1H-23" value="nombre" style="ellipse;whiteSpace=wrap;html=1;align=center;" parent="1" vertex="1">
          <mxGeometry x="10" y="820" width="85" height="30" as="geometry" />
        </mxCell>
        <mxCell id="LX1QEvnsO2SAnULXbg1H-24" value="descripcion" style="ellipse;whiteSpace=wrap;html=1;align=center;" parent="1" vertex="1">
          <mxGeometry x="10" y="850" width="85" height="30" as="geometry" />
        </mxCell>
        <mxCell id="LX1QEvnsO2SAnULXbg1H-25" value="series" style="ellipse;whiteSpace=wrap;html=1;align=center;" parent="1" vertex="1">
          <mxGeometry x="10" y="880" width="85" height="30" as="geometry" />
        </mxCell>
        <mxCell id="LX1QEvnsO2SAnULXbg1H-26" value="comics" style="ellipse;whiteSpace=wrap;html=1;align=center;" parent="1" vertex="1">
          <mxGeometry x="10" y="908" width="85" height="30" as="geometry" />
        </mxCell>
        <mxCell id="LX1QEvnsO2SAnULXbg1H-27" value="URL_imagen" style="ellipse;whiteSpace=wrap;html=1;align=center;" parent="1" vertex="1">
          <mxGeometry x="10" y="938" width="85" height="30" as="geometry" />
        </mxCell>
        <mxCell id="LX1QEvnsO2SAnULXbg1H-28" value="id_personaje" style="ellipse;whiteSpace=wrap;html=1;align=center;fontStyle=4;" parent="1" vertex="1">
          <mxGeometry x="15" y="658" width="80" height="30" as="geometry" />
        </mxCell>
        <mxCell id="LX1QEvnsO2SAnULXbg1H-29" value="" style="endArrow=none;html=1;rounded=0;exitX=0.5;exitY=0;exitDx=0;exitDy=0;entryX=0.5;entryY=1;entryDx=0;entryDy=0;" parent="1" source="E68iJSFj84GTbNLbcEv8-4" target="LX1QEvnsO2SAnULXbg1H-28" edge="1">
          <mxGeometry relative="1" as="geometry">
            <mxPoint x="170" y="440" as="sourcePoint" />
            <mxPoint x="250" y="440" as="targetPoint" />
          </mxGeometry>
        </mxCell>
        <mxCell id="LX1QEvnsO2SAnULXbg1H-30" value="" style="endArrow=none;html=1;rounded=0;exitX=0.5;exitY=1;exitDx=0;exitDy=0;entryX=1;entryY=0.5;entryDx=0;entryDy=0;" parent="1" source="E68iJSFj84GTbNLbcEv8-4" target="LX1QEvnsO2SAnULXbg1H-23" edge="1">
          <mxGeometry relative="1" as="geometry">
            <mxPoint x="160" y="750" as="sourcePoint" />
            <mxPoint x="93" y="698" as="targetPoint" />
          </mxGeometry>
        </mxCell>
        <mxCell id="LX1QEvnsO2SAnULXbg1H-31" value="" style="endArrow=none;html=1;rounded=0;exitX=0.5;exitY=1;exitDx=0;exitDy=0;entryX=1;entryY=0.5;entryDx=0;entryDy=0;" parent="1" source="E68iJSFj84GTbNLbcEv8-4" target="LX1QEvnsO2SAnULXbg1H-24" edge="1">
          <mxGeometry relative="1" as="geometry">
            <mxPoint x="160" y="790" as="sourcePoint" />
            <mxPoint x="95" y="855" as="targetPoint" />
          </mxGeometry>
        </mxCell>
        <mxCell id="LX1QEvnsO2SAnULXbg1H-32" value="" style="endArrow=none;html=1;rounded=0;exitX=0.5;exitY=1;exitDx=0;exitDy=0;entryX=1;entryY=0.5;entryDx=0;entryDy=0;" parent="1" source="E68iJSFj84GTbNLbcEv8-4" target="LX1QEvnsO2SAnULXbg1H-25" edge="1">
          <mxGeometry relative="1" as="geometry">
            <mxPoint x="160" y="790" as="sourcePoint" />
            <mxPoint x="95" y="885" as="targetPoint" />
          </mxGeometry>
        </mxCell>
        <mxCell id="LX1QEvnsO2SAnULXbg1H-33" value="" style="endArrow=none;html=1;rounded=0;exitX=0.5;exitY=1;exitDx=0;exitDy=0;entryX=1;entryY=0.5;entryDx=0;entryDy=0;" parent="1" source="E68iJSFj84GTbNLbcEv8-4" target="LX1QEvnsO2SAnULXbg1H-26" edge="1">
          <mxGeometry relative="1" as="geometry">
            <mxPoint x="160" y="790" as="sourcePoint" />
            <mxPoint x="95" y="915" as="targetPoint" />
          </mxGeometry>
        </mxCell>
        <mxCell id="LX1QEvnsO2SAnULXbg1H-34" value="" style="endArrow=none;html=1;rounded=0;exitX=0.5;exitY=1;exitDx=0;exitDy=0;entryX=1;entryY=0.5;entryDx=0;entryDy=0;" parent="1" source="E68iJSFj84GTbNLbcEv8-4" target="LX1QEvnsO2SAnULXbg1H-27" edge="1">
          <mxGeometry relative="1" as="geometry">
            <mxPoint x="160" y="790" as="sourcePoint" />
            <mxPoint x="95" y="943" as="targetPoint" />
          </mxGeometry>
        </mxCell>
        <mxCell id="LX1QEvnsO2SAnULXbg1H-35" value="URL_imagen" style="ellipse;whiteSpace=wrap;html=1;align=center;" parent="1" vertex="1">
          <mxGeometry x="707.5" y="418" width="85" height="30" as="geometry" />
        </mxCell>
        <mxCell id="LX1QEvnsO2SAnULXbg1H-36" value="fecha_fin" style="ellipse;whiteSpace=wrap;html=1;align=center;" parent="1" vertex="1">
          <mxGeometry x="707.5" y="340" width="85" height="30" as="geometry" />
        </mxCell>
        <mxCell id="LX1QEvnsO2SAnULXbg1H-37" value="fecha_incio" style="ellipse;whiteSpace=wrap;html=1;align=center;" parent="1" vertex="1">
          <mxGeometry x="622.5" y="340" width="85" height="30" as="geometry" />
        </mxCell>
        <mxCell id="LX1QEvnsO2SAnULXbg1H-38" value="descripcion" style="ellipse;whiteSpace=wrap;html=1;align=center;" parent="1" vertex="1">
          <mxGeometry x="537.5" y="340" width="85" height="30" as="geometry" />
        </mxCell>
        <mxCell id="LX1QEvnsO2SAnULXbg1H-39" value="titulo" style="ellipse;whiteSpace=wrap;html=1;align=center;" parent="1" vertex="1">
          <mxGeometry x="451.5" y="340" width="85" height="30" as="geometry" />
        </mxCell>
        <mxCell id="LX1QEvnsO2SAnULXbg1H-40" value="id_serie" style="ellipse;whiteSpace=wrap;html=1;align=center;fontStyle=4;" parent="1" vertex="1">
          <mxGeometry x="710" y="470" width="80" height="30" as="geometry" />
        </mxCell>
        <mxCell id="LX1QEvnsO2SAnULXbg1H-41" value="" style="endArrow=none;html=1;rounded=0;entryX=1;entryY=0.5;entryDx=0;entryDy=0;exitX=0;exitY=0.5;exitDx=0;exitDy=0;" parent="1" source="LX1QEvnsO2SAnULXbg1H-35" target="E68iJSFj84GTbNLbcEv8-3" edge="1">
          <mxGeometry relative="1" as="geometry">
            <mxPoint x="560" y="460" as="sourcePoint" />
            <mxPoint x="670" y="590" as="targetPoint" />
          </mxGeometry>
        </mxCell>
        <mxCell id="LX1QEvnsO2SAnULXbg1H-42" value="" style="endArrow=none;html=1;rounded=0;entryX=1;entryY=0.5;entryDx=0;entryDy=0;exitX=0;exitY=0.5;exitDx=0;exitDy=0;" parent="1" source="LX1QEvnsO2SAnULXbg1H-40" target="E68iJSFj84GTbNLbcEv8-3" edge="1">
          <mxGeometry relative="1" as="geometry">
            <mxPoint x="717" y="443" as="sourcePoint" />
            <mxPoint x="610" y="440" as="targetPoint" />
          </mxGeometry>
        </mxCell>
        <mxCell id="LX1QEvnsO2SAnULXbg1H-43" value="" style="endArrow=none;html=1;rounded=0;entryX=0.5;entryY=1;entryDx=0;entryDy=0;exitX=1;exitY=0.5;exitDx=0;exitDy=0;" parent="1" source="E68iJSFj84GTbNLbcEv8-3" target="LX1QEvnsO2SAnULXbg1H-36" edge="1">
          <mxGeometry relative="1" as="geometry">
            <mxPoint x="720" y="495" as="sourcePoint" />
            <mxPoint x="610" y="440" as="targetPoint" />
          </mxGeometry>
        </mxCell>
        <mxCell id="LX1QEvnsO2SAnULXbg1H-44" value="" style="endArrow=none;html=1;rounded=0;entryX=0.75;entryY=0;entryDx=0;entryDy=0;exitX=0.5;exitY=1;exitDx=0;exitDy=0;" parent="1" source="LX1QEvnsO2SAnULXbg1H-37" target="E68iJSFj84GTbNLbcEv8-3" edge="1">
          <mxGeometry relative="1" as="geometry">
            <mxPoint x="610" y="420" as="sourcePoint" />
            <mxPoint x="760" y="380" as="targetPoint" />
          </mxGeometry>
        </mxCell>
        <mxCell id="LX1QEvnsO2SAnULXbg1H-45" value="" style="endArrow=none;html=1;rounded=0;entryX=0.5;entryY=0;entryDx=0;entryDy=0;exitX=0.5;exitY=1;exitDx=0;exitDy=0;" parent="1" source="LX1QEvnsO2SAnULXbg1H-38" target="E68iJSFj84GTbNLbcEv8-3" edge="1">
          <mxGeometry relative="1" as="geometry">
            <mxPoint x="675" y="380" as="sourcePoint" />
            <mxPoint x="585" y="420" as="targetPoint" />
          </mxGeometry>
        </mxCell>
        <mxCell id="LX1QEvnsO2SAnULXbg1H-46" value="" style="endArrow=none;html=1;rounded=0;entryX=0.25;entryY=0;entryDx=0;entryDy=0;exitX=0.5;exitY=1;exitDx=0;exitDy=0;" parent="1" source="LX1QEvnsO2SAnULXbg1H-39" target="E68iJSFj84GTbNLbcEv8-3" edge="1">
          <mxGeometry relative="1" as="geometry">
            <mxPoint x="590" y="380" as="sourcePoint" />
            <mxPoint x="560" y="420" as="targetPoint" />
          </mxGeometry>
        </mxCell>
        <mxCell id="LX1QEvnsO2SAnULXbg1H-48" value="titulo" style="ellipse;whiteSpace=wrap;html=1;align=center;" parent="1" vertex="1">
          <mxGeometry x="737.5" y="640" width="85" height="30" as="geometry" />
        </mxCell>
        <mxCell id="LX1QEvnsO2SAnULXbg1H-49" value="descripcion" style="ellipse;whiteSpace=wrap;html=1;align=center;" parent="1" vertex="1">
          <mxGeometry x="737.5" y="670" width="85" height="30" as="geometry" />
        </mxCell>
        <mxCell id="LX1QEvnsO2SAnULXbg1H-50" value="num_edicion" style="ellipse;whiteSpace=wrap;html=1;align=center;" parent="1" vertex="1">
          <mxGeometry x="737.5" y="700" width="85" height="30" as="geometry" />
        </mxCell>
        <mxCell id="LX1QEvnsO2SAnULXbg1H-51" value="fecha_pub" style="ellipse;whiteSpace=wrap;html=1;align=center;" parent="1" vertex="1">
          <mxGeometry x="737.5" y="778" width="85" height="30" as="geometry" />
        </mxCell>
        <mxCell id="LX1QEvnsO2SAnULXbg1H-52" value="URL_imagen" style="ellipse;whiteSpace=wrap;html=1;align=center;" parent="1" vertex="1">
          <mxGeometry x="737.5" y="808" width="85" height="30" as="geometry" />
        </mxCell>
        <mxCell id="LX1QEvnsO2SAnULXbg1H-53" value="" style="endArrow=none;html=1;rounded=0;exitX=0;exitY=0.5;exitDx=0;exitDy=0;entryX=1;entryY=0;entryDx=0;entryDy=0;" parent="1" source="LX1QEvnsO2SAnULXbg1H-48" target="E68iJSFj84GTbNLbcEv8-2" edge="1">
          <mxGeometry relative="1" as="geometry">
            <mxPoint x="740" y="610" as="sourcePoint" />
            <mxPoint x="900" y="610" as="targetPoint" />
          </mxGeometry>
        </mxCell>
        <mxCell id="LX1QEvnsO2SAnULXbg1H-54" value="" style="endArrow=none;html=1;rounded=0;exitX=0;exitY=0.5;exitDx=0;exitDy=0;entryX=1;entryY=0;entryDx=0;entryDy=0;" parent="1" source="LX1QEvnsO2SAnULXbg1H-49" target="E68iJSFj84GTbNLbcEv8-2" edge="1">
          <mxGeometry relative="1" as="geometry">
            <mxPoint x="748" y="665" as="sourcePoint" />
            <mxPoint x="695" y="750" as="targetPoint" />
          </mxGeometry>
        </mxCell>
        <mxCell id="LX1QEvnsO2SAnULXbg1H-55" value="" style="endArrow=none;html=1;rounded=0;exitX=0;exitY=0.5;exitDx=0;exitDy=0;entryX=1;entryY=0.5;entryDx=0;entryDy=0;" parent="1" source="LX1QEvnsO2SAnULXbg1H-50" target="E68iJSFj84GTbNLbcEv8-2" edge="1">
          <mxGeometry relative="1" as="geometry">
            <mxPoint x="748" y="695" as="sourcePoint" />
            <mxPoint x="720" y="750" as="targetPoint" />
          </mxGeometry>
        </mxCell>
        <mxCell id="LX1QEvnsO2SAnULXbg1H-56" value="" style="endArrow=none;html=1;rounded=0;exitX=0;exitY=0.5;exitDx=0;exitDy=0;entryX=1;entryY=0.5;entryDx=0;entryDy=0;" parent="1" source="LX1QEvnsO2SAnULXbg1H-51" target="E68iJSFj84GTbNLbcEv8-2" edge="1">
          <mxGeometry relative="1" as="geometry">
            <mxPoint x="748" y="725" as="sourcePoint" />
            <mxPoint x="720" y="770" as="targetPoint" />
          </mxGeometry>
        </mxCell>
        <mxCell id="LX1QEvnsO2SAnULXbg1H-57" value="" style="endArrow=none;html=1;rounded=0;exitX=0;exitY=0.5;exitDx=0;exitDy=0;entryX=1;entryY=1;entryDx=0;entryDy=0;" parent="1" source="LX1QEvnsO2SAnULXbg1H-52" target="E68iJSFj84GTbNLbcEv8-2" edge="1">
          <mxGeometry relative="1" as="geometry">
            <mxPoint x="748" y="803" as="sourcePoint" />
            <mxPoint x="720" y="770" as="targetPoint" />
          </mxGeometry>
        </mxCell>
        <mxCell id="LX1QEvnsO2SAnULXbg1H-58" value="id_comic" style="ellipse;whiteSpace=wrap;html=1;align=center;fontStyle=4;" parent="1" vertex="1">
          <mxGeometry x="737.5" y="610" width="80" height="30" as="geometry" />
        </mxCell>
        <mxCell id="LX1QEvnsO2SAnULXbg1H-59" value="" style="endArrow=none;html=1;rounded=0;exitX=0;exitY=0.5;exitDx=0;exitDy=0;entryX=0.75;entryY=0;entryDx=0;entryDy=0;" parent="1" source="LX1QEvnsO2SAnULXbg1H-58" target="E68iJSFj84GTbNLbcEv8-2" edge="1">
          <mxGeometry relative="1" as="geometry">
            <mxPoint x="748" y="665" as="sourcePoint" />
            <mxPoint x="720" y="750" as="targetPoint" />
          </mxGeometry>
        </mxCell>
        <mxCell id="LX1QEvnsO2SAnULXbg1H-60" value="comics_rel" style="ellipse;whiteSpace=wrap;html=1;align=center;" parent="1" vertex="1">
          <mxGeometry x="451.5" y="1090" width="85" height="30" as="geometry" />
        </mxCell>
        <mxCell id="LX1QEvnsO2SAnULXbg1H-61" value="titulo" style="ellipse;whiteSpace=wrap;html=1;align=center;" parent="1" vertex="1">
          <mxGeometry x="27.5" y="1090" width="85" height="30" as="geometry" />
        </mxCell>
        <mxCell id="LX1QEvnsO2SAnULXbg1H-62" value="descripcion" style="ellipse;whiteSpace=wrap;html=1;align=center;" parent="1" vertex="1">
          <mxGeometry x="112.5" y="1090" width="85" height="30" as="geometry" />
        </mxCell>
        <mxCell id="LX1QEvnsO2SAnULXbg1H-63" value="fecha_ini" style="ellipse;whiteSpace=wrap;html=1;align=center;" parent="1" vertex="1">
          <mxGeometry x="200" y="1090" width="85" height="30" as="geometry" />
        </mxCell>
        <mxCell id="LX1QEvnsO2SAnULXbg1H-64" value="fecha_fin" style="ellipse;whiteSpace=wrap;html=1;align=center;" parent="1" vertex="1">
          <mxGeometry x="285" y="1090" width="85" height="30" as="geometry" />
        </mxCell>
        <mxCell id="LX1QEvnsO2SAnULXbg1H-65" value="personajes_inv" style="ellipse;whiteSpace=wrap;html=1;align=center;" parent="1" vertex="1">
          <mxGeometry x="366.5" y="1090" width="85" height="30" as="geometry" />
        </mxCell>
        <mxCell id="LX1QEvnsO2SAnULXbg1H-67" value="" style="endArrow=none;html=1;rounded=0;entryX=0;entryY=1;entryDx=0;entryDy=0;exitX=0.5;exitY=0;exitDx=0;exitDy=0;" parent="1" source="LX1QEvnsO2SAnULXbg1H-61" target="E68iJSFj84GTbNLbcEv8-1" edge="1">
          <mxGeometry relative="1" as="geometry">
            <mxPoint x="345" y="850" as="sourcePoint" />
            <mxPoint x="374" y="950" as="targetPoint" />
          </mxGeometry>
        </mxCell>
        <mxCell id="LX1QEvnsO2SAnULXbg1H-68" value="" style="endArrow=none;html=1;rounded=0;entryX=0.25;entryY=1;entryDx=0;entryDy=0;exitX=0.5;exitY=0;exitDx=0;exitDy=0;" parent="1" source="LX1QEvnsO2SAnULXbg1H-62" target="E68iJSFj84GTbNLbcEv8-1" edge="1">
          <mxGeometry relative="1" as="geometry">
            <mxPoint x="80" y="1100" as="sourcePoint" />
            <mxPoint x="374" y="970" as="targetPoint" />
          </mxGeometry>
        </mxCell>
        <mxCell id="LX1QEvnsO2SAnULXbg1H-69" value="" style="endArrow=none;html=1;rounded=0;entryX=0.5;entryY=1;entryDx=0;entryDy=0;exitX=0.5;exitY=0;exitDx=0;exitDy=0;" parent="1" source="LX1QEvnsO2SAnULXbg1H-63" target="E68iJSFj84GTbNLbcEv8-1" edge="1">
          <mxGeometry relative="1" as="geometry">
            <mxPoint x="165" y="1100" as="sourcePoint" />
            <mxPoint x="399" y="970" as="targetPoint" />
          </mxGeometry>
        </mxCell>
        <mxCell id="LX1QEvnsO2SAnULXbg1H-70" value="" style="endArrow=none;html=1;rounded=0;entryX=0.5;entryY=1;entryDx=0;entryDy=0;exitX=0.5;exitY=0;exitDx=0;exitDy=0;" parent="1" source="LX1QEvnsO2SAnULXbg1H-64" target="E68iJSFj84GTbNLbcEv8-1" edge="1">
          <mxGeometry relative="1" as="geometry">
            <mxPoint x="175" y="1110" as="sourcePoint" />
            <mxPoint x="424" y="970" as="targetPoint" />
          </mxGeometry>
        </mxCell>
        <mxCell id="LX1QEvnsO2SAnULXbg1H-71" value="" style="endArrow=none;html=1;rounded=0;entryX=0.5;entryY=1;entryDx=0;entryDy=0;exitX=0.5;exitY=0;exitDx=0;exitDy=0;" parent="1" source="LX1QEvnsO2SAnULXbg1H-65" target="E68iJSFj84GTbNLbcEv8-1" edge="1">
          <mxGeometry relative="1" as="geometry">
            <mxPoint x="252" y="1100" as="sourcePoint" />
            <mxPoint x="424" y="970" as="targetPoint" />
          </mxGeometry>
        </mxCell>
        <mxCell id="LX1QEvnsO2SAnULXbg1H-72" value="" style="endArrow=none;html=1;rounded=0;entryX=0.5;entryY=1;entryDx=0;entryDy=0;exitX=0.5;exitY=0;exitDx=0;exitDy=0;" parent="1" source="LX1QEvnsO2SAnULXbg1H-60" target="E68iJSFj84GTbNLbcEv8-1" edge="1">
          <mxGeometry relative="1" as="geometry">
            <mxPoint x="337" y="1100" as="sourcePoint" />
            <mxPoint x="424" y="970" as="targetPoint" />
          </mxGeometry>
        </mxCell>
        <mxCell id="LX1QEvnsO2SAnULXbg1H-73" value="id_evento" style="ellipse;whiteSpace=wrap;html=1;align=center;fontStyle=4;" parent="1" vertex="1">
          <mxGeometry x="536.5" y="1090" width="80" height="30" as="geometry" />
        </mxCell>
        <mxCell id="LX1QEvnsO2SAnULXbg1H-74" value="" style="endArrow=none;html=1;rounded=0;entryX=0.75;entryY=1;entryDx=0;entryDy=0;exitX=0.5;exitY=0;exitDx=0;exitDy=0;" parent="1" source="LX1QEvnsO2SAnULXbg1H-73" target="E68iJSFj84GTbNLbcEv8-1" edge="1">
          <mxGeometry relative="1" as="geometry">
            <mxPoint x="504" y="1100" as="sourcePoint" />
            <mxPoint x="424" y="970" as="targetPoint" />
          </mxGeometry>
        </mxCell>
        <mxCell id="LX1QEvnsO2SAnULXbg1H-75" value="URL_imagen" style="ellipse;whiteSpace=wrap;html=1;align=center;" parent="1" vertex="1">
          <mxGeometry x="730" y="980" width="85" height="30" as="geometry" />
        </mxCell>
        <mxCell id="LX1QEvnsO2SAnULXbg1H-76" value="comics_creados" style="ellipse;whiteSpace=wrap;html=1;align=center;" parent="1" vertex="1">
          <mxGeometry x="727.5" y="1010" width="85" height="30" as="geometry" />
        </mxCell>
        <mxCell id="LX1QEvnsO2SAnULXbg1H-77" value="nombre" style="ellipse;whiteSpace=wrap;html=1;align=center;" parent="1" vertex="1">
          <mxGeometry x="725" y="1040" width="85" height="30" as="geometry" />
        </mxCell>
        <mxCell id="LX1QEvnsO2SAnULXbg1H-78" value="rol" style="ellipse;whiteSpace=wrap;html=1;align=center;" parent="1" vertex="1">
          <mxGeometry x="725" y="1070" width="85" height="30" as="geometry" />
        </mxCell>
        <mxCell id="LX1QEvnsO2SAnULXbg1H-79" value="id_creador" style="ellipse;whiteSpace=wrap;html=1;align=center;fontStyle=4;" parent="1" vertex="1">
          <mxGeometry x="720" y="1100" width="90" height="30" as="geometry" />
        </mxCell>
        <mxCell id="sCPmE64AWJMND9Sbl95k-1" value="" style="endArrow=none;html=1;rounded=0;exitX=0;exitY=0.5;exitDx=0;exitDy=0;" edge="1" parent="1" source="LX1QEvnsO2SAnULXbg1H-75">
          <mxGeometry relative="1" as="geometry">
            <mxPoint x="670" y="880" as="sourcePoint" />
            <mxPoint x="660" y="960" as="targetPoint" />
          </mxGeometry>
        </mxCell>
        <mxCell id="sCPmE64AWJMND9Sbl95k-2" value="" style="endArrow=none;html=1;rounded=0;entryX=0.5;entryY=1;entryDx=0;entryDy=0;exitX=0;exitY=0.5;exitDx=0;exitDy=0;" edge="1" parent="1" source="LX1QEvnsO2SAnULXbg1H-76">
          <mxGeometry relative="1" as="geometry">
            <mxPoint x="740" y="1005" as="sourcePoint" />
            <mxPoint x="670" y="970" as="targetPoint" />
          </mxGeometry>
        </mxCell>
        <mxCell id="sCPmE64AWJMND9Sbl95k-3" value="" style="endArrow=none;html=1;rounded=0;exitX=0;exitY=0.5;exitDx=0;exitDy=0;entryX=0.5;entryY=1;entryDx=0;entryDy=0;" edge="1" parent="1" source="LX1QEvnsO2SAnULXbg1H-77" target="GF9N1NEK_EVH8XBZDfcY-1">
          <mxGeometry relative="1" as="geometry">
            <mxPoint x="740" y="1005" as="sourcePoint" />
            <mxPoint x="670" y="970" as="targetPoint" />
          </mxGeometry>
        </mxCell>
        <mxCell id="sCPmE64AWJMND9Sbl95k-4" value="" style="endArrow=none;html=1;rounded=0;exitX=0;exitY=0.5;exitDx=0;exitDy=0;entryX=0.5;entryY=1;entryDx=0;entryDy=0;" edge="1" parent="1" source="LX1QEvnsO2SAnULXbg1H-78" target="GF9N1NEK_EVH8XBZDfcY-1">
          <mxGeometry relative="1" as="geometry">
            <mxPoint x="735" y="1065" as="sourcePoint" />
            <mxPoint x="670" y="970" as="targetPoint" />
          </mxGeometry>
        </mxCell>
        <mxCell id="sCPmE64AWJMND9Sbl95k-5" value="" style="endArrow=none;html=1;rounded=0;exitX=0;exitY=0.5;exitDx=0;exitDy=0;entryX=0.5;entryY=1;entryDx=0;entryDy=0;" edge="1" parent="1" source="LX1QEvnsO2SAnULXbg1H-79" target="GF9N1NEK_EVH8XBZDfcY-1">
          <mxGeometry relative="1" as="geometry">
            <mxPoint x="735" y="1095" as="sourcePoint" />
            <mxPoint x="670" y="970" as="targetPoint" />
          </mxGeometry>
        </mxCell>
      </root>
    </mxGraphModel>
  </diagram>
</mxfile>
